<?xml version="1.0" encoding="UTF-8" standalone="no"?>
<svg
   id="Layer_1"
   data-name="Layer 1"
   viewBox="0 0 850 429.99999"
   version="1.1"
   sodipodi:docname="logo.svg"
   width="850"
   height="430"
   inkscape:version="1.2 (dc2aedaf03, 2022-05-15)"
   xmlns:inkscape="http://www.inkscape.org/namespaces/inkscape"
   xmlns:sodipodi="http://sodipodi.sourceforge.net/DTD/sodipodi-0.dtd"
   xmlns="http://www.w3.org/2000/svg"
   xmlns:svg="http://www.w3.org/2000/svg">
  <sodipodi:namedview
     id="namedview223"
     pagecolor="#ffffff"
     bordercolor="#666666"
     borderopacity="1.0"
     inkscape:showpageshadow="2"
     inkscape:pageopacity="0.0"
     inkscape:pagecheckerboard="0"
     inkscape:deskcolor="#d1d1d1"
     showgrid="false"
     inkscape:zoom="1.3009977"
     inkscape:cx="492.6988"
     inkscape:cy="291.69921"
     inkscape:window-width="1920"
     inkscape:window-height="1017"
     inkscape:window-x="-8"
     inkscape:window-y="-8"
     inkscape:window-maximized="1"
     inkscape:current-layer="Layer_1" />
  <defs
     id="defs4">
    <style
       id="style2">.cls-1{fill:#e3ecf6;}.cls-2,.cls-6{fill:none;}.cls-2,.cls-3{stroke:#000;}.cls-2,.cls-3,.cls-4,.cls-6{stroke-linecap:round;stroke-width:4px;}.cls-2,.cls-3,.cls-4{stroke-miterlimit:10;}.cls-3,.cls-4{fill:#fff;}.cls-4,.cls-6{stroke:#2c9271;}.cls-5{fill:#2c9271;}.cls-6{stroke-linejoin:round;}</style>
  </defs>
  <path
     class="cls-1"
     d="m 713.45,194.63603 c -9,-6.14796 -9.49,-18.86562 -13.07,-27.40175 A 138.94,114.81315 0 0 0 677.23,133.07302 175.37,144.91695 0 0 0 618.4,93.95373 C 613.34,91.88769 608.03,89.95396 604.07,86.62389 592,76.41841 594.61,58.974161 585,47.223461 575.66,35.852853 562.75,26.903503 548.28,20.259622 518.17,6.459596 482.28,2.27 448.28,2.27 c -44.1,0 -94.12,8.718003 -127.61,34.062165 A 62.88,51.960915 0 0 0 300.2,81.318669 c 1.91,14.147101 18.5,26.443251 17.27,41.524051 -1.3,15.77517 -20.73,25.61683 -28.51,38.99551 -26.33,45.29227 -32.23,118.05253 8.94,154.78381 45.14,40.27623 130.89,43.02796 196.43,43.02796 29.62,0 58.25,-6.47043 87.34,-10.15576 31.35,-3.97483 60,1.29734 91.18,0.9914 29.66,-0.28895 59.43,-4.8505 86.79,-14.461 31.91,-11.20532 67.5,-33.00437 67.5,-64.67833 0,-41.40023 -53.5,-65.86819 -96.86,-72.02489 -5.59,-0.82647 -11.5,-1.42116 -16.06,-4.21448 q -0.41,-0.22294 -0.77,-0.47091 z"
     id="path6"
     style="stroke-width:0.909034" />
  <path
     class="cls-2"
     d="M 815.82,128.3 H 577.89 a 11,11 0 0 1 -7.76,-3.21 L 538.87,93.82 a 11,11 0 0 0 -7.76,-3.21 H 322.6 a 11,11 0 0 0 -7.76,3.21 l -31.26,31.27 a 11,11 0 0 1 -7.76,3.21 H 37.89"
     id="path8" />
  <line
     class="cls-3"
     x1="75.970001"
     y1="128.3"
     x2="75.970001"
     y2="149.28"
     id="line10" />
  <line
     class="cls-3"
     x1="96.949997"
     y1="128.3"
     x2="96.949997"
     y2="149.28"
     id="line12" />
  <line
     class="cls-3"
     x1="117.94"
     y1="128.3"
     x2="117.94"
     y2="149.28"
     id="line14" />
  <line
     class="cls-3"
     x1="138.92"
     y1="128.3"
     x2="138.92"
     y2="149.28"
     id="line16" />
  <line
     class="cls-3"
     x1="159.89999"
     y1="128.3"
     x2="159.89999"
     y2="149.28"
     id="line18" />
  <line
     class="cls-3"
     x1="180.89"
     y1="128.3"
     x2="180.89"
     y2="149.28"
     id="line20" />
  <line
     class="cls-3"
     x1="201.87"
     y1="128.3"
     x2="201.87"
     y2="149.28"
     id="line22" />
  <line
     class="cls-3"
     x1="222.85001"
     y1="128.3"
     x2="222.85001"
     y2="149.28"
     id="line24" />
  <line
     class="cls-3"
     x1="243.84"
     y1="128.3"
     x2="243.84"
     y2="149.28"
     id="line26" />
  <line
     class="cls-3"
     x1="264.82001"
     y1="128.3"
     x2="264.82001"
     y2="149.28"
     id="line28" />
  <line
     class="cls-3"
     x1="593.97998"
     y1="128.3"
     x2="593.97998"
     y2="149.28"
     id="line30" />
  <line
     class="cls-3"
     x1="614.96002"
     y1="128.3"
     x2="614.96002"
     y2="149.28"
     id="line32" />
  <line
     class="cls-3"
     x1="635.94"
     y1="128.3"
     x2="635.94"
     y2="149.28"
     id="line34" />
  <line
     class="cls-3"
     x1="656.92999"
     y1="128.3"
     x2="656.92999"
     y2="149.28"
     id="line36" />
  <line
     class="cls-3"
     x1="677.90997"
     y1="128.3"
     x2="677.90997"
     y2="149.28"
     id="line38" />
  <line
     class="cls-3"
     x1="698.89001"
     y1="128.3"
     x2="698.89001"
     y2="149.28"
     id="line40" />
  <line
     class="cls-3"
     x1="719.88"
     y1="128.3"
     x2="719.88"
     y2="149.28"
     id="line42" />
  <line
     class="cls-3"
     x1="740.85999"
     y1="128.3"
     x2="740.85999"
     y2="149.28"
     id="line44" />
  <line
     class="cls-3"
     x1="761.84003"
     y1="128.3"
     x2="761.84003"
     y2="149.28"
     id="line46" />
  <line
     class="cls-3"
     x1="782.82001"
     y1="128.3"
     x2="782.82001"
     y2="149.28"
     id="line48" />
  <path
     class="cls-2"
     d="M 815.82,194 H 577.89 a 11,11 0 0 0 -7.76,3.22 l -31.26,31.26 a 11,11 0 0 1 -7.76,3.21 H 322.6 a 11,11 0 0 1 -7.76,-3.21 L 283.58,197.22 A 11,11 0 0 0 275.82,194 H 37.89"
     id="path50" />
  <line
     class="cls-3"
     x1="75.970001"
     y1="193.97"
     x2="75.970001"
     y2="172.98999"
     id="line52" />
  <line
     class="cls-3"
     x1="336.57999"
     y1="231.66"
     x2="336.57999"
     y2="210.67999"
     id="line54" />
  <line
     class="cls-3"
     x1="357.59"
     y1="231.66"
     x2="357.59"
     y2="210.67999"
     id="line56" />
  <line
     class="cls-3"
     x1="378.60001"
     y1="231.66"
     x2="378.60001"
     y2="210.67999"
     id="line58" />
  <line
     class="cls-3"
     x1="399.60999"
     y1="231.66"
     x2="399.60999"
     y2="210.67999"
     id="line60" />
  <line
     class="cls-3"
     x1="420.62"
     y1="231.66"
     x2="420.62"
     y2="210.67999"
     id="line62" />
  <line
     class="cls-3"
     x1="441.64001"
     y1="231.66"
     x2="441.64001"
     y2="210.67999"
     id="line64" />
  <line
     class="cls-3"
     x1="462.64999"
     y1="231.66"
     x2="462.64999"
     y2="210.67999"
     id="line66" />
  <line
     class="cls-3"
     x1="483.65997"
     y1="231.66"
     x2="483.65997"
     y2="210.67999"
     id="line68" />
  <line
     class="cls-3"
     x1="504.66998"
     y1="231.66"
     x2="504.66998"
     y2="210.67999"
     id="line70" />
  <line
     class="cls-3"
     x1="525.67999"
     y1="231.66"
     x2="525.67999"
     y2="210.67999"
     id="line72" />
  <line
     class="cls-4"
     x1="336.57999"
     y1="182.12"
     x2="336.57999"
     y2="161.14001"
     id="line74" />
  <line
     class="cls-4"
     x1="357.59"
     y1="182.12"
     x2="357.59"
     y2="161.14001"
     id="line76" />
  <line
     class="cls-4"
     x1="378.60001"
     y1="182.12"
     x2="378.60001"
     y2="161.14001"
     id="line78" />
  <line
     class="cls-4"
     x1="399.60999"
     y1="182.12"
     x2="399.60999"
     y2="161.14001"
     id="line80" />
  <line
     class="cls-4"
     x1="420.62"
     y1="182.12"
     x2="420.62"
     y2="161.14001"
     id="line82" />
  <line
     class="cls-4"
     x1="441.64001"
     y1="182.12"
     x2="441.64001"
     y2="161.14001"
     id="line84" />
  <line
     class="cls-4"
     x1="462.64999"
     y1="182.12"
     x2="462.64999"
     y2="161.14001"
     id="line86" />
  <line
     class="cls-4"
     x1="483.65997"
     y1="182.12"
     x2="483.65997"
     y2="161.14001"
     id="line88" />
  <line
     class="cls-4"
     x1="504.66998"
     y1="182.12"
     x2="504.66998"
     y2="161.14001"
     id="line90" />
  <line
     class="cls-4"
     x1="525.67999"
     y1="182.12"
     x2="525.67999"
     y2="161.14001"
     id="line92" />
  <line
     class="cls-4"
     x1="580.59998"
     y1="264.5"
     x2="580.59998"
     y2="243.51001"
     id="line94" />
  <line
     class="cls-4"
     x1="600.03003"
     y1="264.5"
     x2="600.03003"
     y2="243.51001"
     id="line96" />
  <line
     class="cls-4"
     x1="619.46002"
     y1="264.5"
     x2="619.46002"
     y2="243.51001"
     id="line98" />
  <line
     class="cls-4"
     x1="638.89001"
     y1="264.5"
     x2="638.89001"
     y2="243.51001"
     id="line100" />
  <line
     class="cls-4"
     x1="658.32001"
     y1="264.5"
     x2="658.32001"
     y2="243.51001"
     id="line102" />
  <line
     class="cls-4"
     x1="580.59998"
     y1="297.32999"
     x2="580.59998"
     y2="276.35001"
     id="line104" />
  <line
     class="cls-4"
     x1="600.03003"
     y1="297.32999"
     x2="600.03003"
     y2="276.35001"
     id="line106" />
  <line
     class="cls-4"
     x1="619.46002"
     y1="297.32999"
     x2="619.46002"
     y2="276.35001"
     id="line108" />
  <line
     class="cls-4"
     x1="638.89001"
     y1="297.32999"
     x2="638.89001"
     y2="276.35001"
     id="line110" />
  <line
     class="cls-4"
     x1="658.32001"
     y1="297.32999"
     x2="658.32001"
     y2="276.35001"
     id="line112" />
  <line
     class="cls-3"
     x1="96.949997"
     y1="193.97"
     x2="96.949997"
     y2="172.98999"
     id="line114" />
  <line
     class="cls-3"
     x1="117.94"
     y1="193.97"
     x2="117.94"
     y2="172.98999"
     id="line116" />
  <line
     class="cls-3"
     x1="138.92"
     y1="193.97"
     x2="138.92"
     y2="172.98999"
     id="line118" />
  <line
     class="cls-3"
     x1="159.89999"
     y1="193.97"
     x2="159.89999"
     y2="172.98999"
     id="line120" />
  <line
     class="cls-3"
     x1="180.89"
     y1="193.97"
     x2="180.89"
     y2="172.98999"
     id="line122" />
  <line
     class="cls-3"
     x1="201.87"
     y1="193.97"
     x2="201.87"
     y2="172.98999"
     id="line124" />
  <line
     class="cls-3"
     x1="222.85001"
     y1="193.97"
     x2="222.85001"
     y2="172.98999"
     id="line126" />
  <line
     class="cls-3"
     x1="243.84"
     y1="193.97"
     x2="243.84"
     y2="172.98999"
     id="line128" />
  <line
     class="cls-3"
     x1="264.82001"
     y1="193.97"
     x2="264.82001"
     y2="172.98999"
     id="line130" />
  <line
     class="cls-3"
     x1="593.97998"
     y1="193.97"
     x2="593.97998"
     y2="172.98999"
     id="line132" />
  <line
     class="cls-3"
     x1="614.96002"
     y1="193.97"
     x2="614.96002"
     y2="172.98999"
     id="line134" />
  <line
     class="cls-3"
     x1="635.94"
     y1="193.97"
     x2="635.94"
     y2="172.98999"
     id="line136" />
  <line
     class="cls-3"
     x1="656.92999"
     y1="193.97"
     x2="656.92999"
     y2="172.98999"
     id="line138" />
  <line
     class="cls-3"
     x1="677.90997"
     y1="193.97"
     x2="677.90997"
     y2="172.98999"
     id="line140" />
  <line
     class="cls-3"
     x1="698.89001"
     y1="193.97"
     x2="698.89001"
     y2="172.98999"
     id="line142" />
  <line
     class="cls-3"
     x1="719.88"
     y1="193.97"
     x2="719.88"
     y2="172.98999"
     id="line144" />
  <line
     class="cls-3"
     x1="740.85999"
     y1="193.97"
     x2="740.85999"
     y2="172.98999"
     id="line146" />
  <line
     class="cls-3"
     x1="761.84003"
     y1="193.97"
     x2="761.84003"
     y2="172.98999"
     id="line148" />
  <line
     class="cls-3"
     x1="782.82001"
     y1="193.97"
     x2="782.82001"
     y2="172.98999"
     id="line150" />
  <path
     d="m 20.79,130.64 c 0,2.81 -2,5 -6,5 a 8.56,8.56 0 0 1 -5.94,-2.13 l 0.83,-1.35 a 7.2,7.2 0 0 0 5.09,1.92 c 2.81,0 4.3,-1.37 4.3,-3.38 0,-2.01 -1.32,-3.46 -5.53,-3.46 H 10 l 0.85,-8.3 h 9.06 v 1.52 h -7.57 l -0.56,5.27 h 2.12 c 5,0.01 6.89,1.97 6.89,4.91 z"
     id="path152" />
  <path
     d="m 25.5,119.12 a 4.34,4.34 0 0 1 -0.31,1.35 l -1,3.26 H 23 l 0.82,-3.41 a 1.2,1.2 0 0 1 -0.87,-1.2 1.22,1.22 0 0 1 1.25,-1.28 1.24,1.24 0 0 1 1.3,1.28 z"
     id="path154" />
  <path
     d="m 842.7,197.21 c 0,2.82 -2,5 -6,5 a 8.56,8.56 0 0 1 -5.94,-2.13 l 0.83,-1.35 a 7.16,7.16 0 0 0 5.08,1.91 c 2.82,0 4.31,-1.37 4.31,-3.38 0,-2.01 -1.33,-3.45 -5.54,-3.45 h -3.52 l 0.85,-8.3 h 9.06 V 187 h -7.57 l -0.57,5.28 h 2.13 c 4.99,0.04 6.88,2 6.88,4.93 z"
     id="path156" />
  <path
     d="m 847.41,185.69 a 4.21,4.21 0 0 1 -0.3,1.35 l -1,3.26 H 845 l 0.83,-3.4 a 1.27,1.27 0 0 1 0.38,-2.48 1.23,1.23 0 0 1 1.2,1.27 z"
     id="path158" />
  <path
     class="cls-5"
     d="m 309.62,166.76 c 0,2.81 -2,5 -6,5 a 8.56,8.56 0 0 1 -5.94,-2.13 l 0.83,-1.35 a 7.16,7.16 0 0 0 5.09,1.92 c 2.81,0 4.3,-1.37 4.3,-3.38 0,-2.01 -1.32,-3.46 -5.53,-3.46 h -3.53 l 0.85,-8.3 h 9.06 v 1.52 h -7.57 l -0.56,5.27 h 2.13 c 4.98,0.01 6.87,1.97 6.87,4.91 z"
     id="path160" />
  <path
     class="cls-5"
     d="m 314.33,155.24 a 4.34,4.34 0 0 1 -0.31,1.35 l -1,3.26 h -1.13 l 0.83,-3.41 a 1.19,1.19 0 0 1 -0.88,-1.2 1.22,1.22 0 0 1 1.25,-1.28 1.24,1.24 0 0 1 1.24,1.28 z"
     id="path162" />
  <path
     d="m 839.27,130.75 c 0,2.77 -2,4.9 -6,4.9 a 8.62,8.62 0 0 1 -6,-2.13 l 0.83,-1.35 a 7.25,7.25 0 0 0 5.13,1.92 c 2.74,0 4.26,-1.28 4.26,-3.34 0,-2.06 -1.4,-3.28 -4.47,-3.28 h -1.19 v -1.26 l 4.59,-5.74 H 828 V 119 h 10.64 v 1.21 l -4.64,5.84 c 3.49,0.19 5.27,2.05 5.27,4.7 z"
     id="path164" />
  <path
     d="m 844.21,119.12 a 4.26,4.26 0 0 1 -0.3,1.35 l -1,3.26 h -1.14 l 0.83,-3.41 a 1.2,1.2 0 0 1 -0.87,-1.2 1.22,1.22 0 0 1 1.25,-1.28 1.24,1.24 0 0 1 1.23,1.28 z"
     id="path166" />
  <path
     class="cls-5"
     d="m 577.31,340.78 c 0,2.76 -2,4.89 -6,4.89 a 8.55,8.55 0 0 1 -6,-2.13 l 0.82,-1.34 a 7.27,7.27 0 0 0 5.14,1.91 c 2.74,0 4.25,-1.28 4.25,-3.33 0,-2.05 -1.39,-3.29 -4.47,-3.29 h -1.18 v -1.25 l 4.59,-5.75 H 566 V 329 h 10.64 v 1.2 l -4.64,5.87 c 3.54,0.19 5.31,2.06 5.31,4.71 z"
     id="path168" />
  <path
     class="cls-5"
     d="m 582.26,329.14 a 4.28,4.28 0 0 1 -0.31,1.35 l -1,3.26 h -1.15 l 0.83,-3.4 a 1.28,1.28 0 0 1 0.37,-2.49 1.24,1.24 0 0 1 1.26,1.28 z"
     id="path170" />
  <path
     d="m 21,197.47 c 0,2.77 -2,4.9 -6,4.9 a 8.6,8.6 0 0 1 -6,-2.13 l 0.82,-1.35 a 7.28,7.28 0 0 0 5.18,1.92 c 2.74,0 4.25,-1.28 4.25,-3.34 0,-2.06 -1.39,-3.29 -4.47,-3.29 h -1.16 v -1.25 l 4.59,-5.75 H 9.74 v -1.51 h 10.64 v 1.21 l -4.68,5.88 c 3.55,0.24 5.3,2.06 5.3,4.71 z"
     id="path172" />
  <path
     d="m 26,185.84 a 4.23,4.23 0 0 1 -0.31,1.34 l -1,3.27 h -1.18 l 0.83,-3.41 a 1.2,1.2 0 0 1 -0.88,-1.2 1.23,1.23 0 0 1 1.25,-1.28 1.24,1.24 0 0 1 1.29,1.28 z"
     id="path174" />
  <path
     d="m 56.37,95.08 h -7.12 v -1.85 h 16.37 v 1.85 h -7.11 v 18.39 h -2.14 z"
     id="path176" />
  <path
     d="m 79.24,104 v 9.43 h -2 v -2.33 c -0.92,1.56 -2.72,2.51 -5.23,2.51 -3.44,0 -5.55,-1.79 -5.55,-4.42 0,-2.34 1.5,-4.31 5.87,-4.31 h 4.82 V 104 c 0,-2.6 -1.47,-4 -4.3,-4 a 7.73,7.73 0 0 0 -5.06,1.8 l -0.93,-1.53 a 9.61,9.61 0 0 1 6.19,-2.06 c 3.95,-0.07 6.19,1.9 6.19,5.79 z m -2.06,4.86 v -2.49 h -4.77 c -3,0 -3.9,1.16 -3.9,2.72 0,1.76 1.42,2.86 3.85,2.86 a 4.86,4.86 0 0 0 4.82,-3.05 z"
     id="path178" />
  <path
     d="m 92.48,98.14 v 2 c -0.17,0 -0.35,0 -0.49,0 -3.18,0 -5.12,2 -5.12,5.61 v 7.75 H 84.82 V 98.26 h 2 v 3 c 0.92,-2.05 2.85,-3.12 5.66,-3.12 z"
     id="path180" />
  <path
     d="m 110.12,98.26 v 13.36 c 0,5.23 -2.58,7.6 -7.61,7.6 a 10.62,10.62 0 0 1 -7.08,-2.34 l 1,-1.56 a 9,9 0 0 0 6,2.08 c 3.85,0 5.61,-1.76 5.61,-5.52 v -1.94 a 6.83,6.83 0 0 1 -5.92,2.95 7.28,7.28 0 0 1 -7.64,-7.4 c 0,-4.37 3.3,-7.35 7.64,-7.35 a 6.85,6.85 0 0 1 6,3 v -2.92 z m -2,7.23 a 5.77,5.77 0 1 0 -5.78,5.58 5.44,5.44 0 0 0 5.78,-5.58 z"
     id="path182" />
  <path
     d="m 129.11,106.5 h -12.72 a 5.63,5.63 0 0 0 6,5.29 6,6 0 0 0 4.66,-2 l 1.16,1.33 a 7.49,7.49 0 0 1 -5.87,2.49 c -4.75,0 -8,-3.24 -8,-7.75 0,-4.51 3.15,-7.72 7.43,-7.72 4.28,0 7.37,3.15 7.37,7.72 0,0.14 -0.03,0.41 -0.03,0.64 z M 116.39,105 h 10.78 a 5.4,5.4 0 0 0 -10.78,0 z"
     id="path184" />
  <path
     d="m 141.34,112.54 a 4.9,4.9 0 0 1 -3.21,1.07 c -2.86,0 -4.45,-1.62 -4.45,-4.42 V 100 H 131 v -1.73 h 2.72 v -3.33 h 2 v 3.33 h 4.63 V 100 h -4.63 v 9.08 c 0,1.79 0.93,2.78 2.63,2.78 a 3.41,3.41 0 0 0 2.26,-0.78 z"
     id="path186" />
  <path
     d="m 153.08,93.23 h 8.24 c 6.48,0 10.84,4.16 10.84,10.12 0,5.96 -4.36,10.12 -10.84,10.12 h -8.24 z m 8.12,18.39 c 5.38,0 8.85,-3.42 8.85,-8.27 0,-4.85 -3.47,-8.27 -8.85,-8.27 h -6 v 16.54 z"
     id="path188" />
  <path
     d="m 193.88,93.23 v 20.24 h -1.77 L 179.1,97 v 16.43 H 177 v -20.2 h 1.76 l 13,16.42 V 93.23 Z"
     id="path190" />
  <path
     d="m 213.16,108.06 h -11.28 l -2.43,5.41 h -2.22 l 9.25,-20.24 h 2.11 l 9.25,20.24 h -2.25 z m -0.78,-1.74 -4.86,-10.87 -4.86,10.87 z"
     id="path192" />
  <path
     d="m 359,38.3 c 0,-6.33 4.86,-10.86 11.4,-10.86 a 10.84,10.84 0 0 1 8.64,3.72 L 376,34 a 6.76,6.76 0 0 0 -5.28,-2.46 6.72,6.72 0 0 0 0,13.44 6.69,6.69 0 0 0 5.28,-2.49 l 3.12,2.88 a 10.79,10.79 0 0 1 -8.67,3.75 C 363.9,49.16 359,44.63 359,38.3 Z"
     id="path194" />
  <path
     d="m 396.18,39.59 v 9.21 h -4.38 v -2 c -0.87,1.47 -2.55,2.25 -4.92,2.25 -3.78,0 -6,-2.1 -6,-4.89 0,-2.79 2,-4.83 6.93,-4.83 h 3.72 c 0,-2 -1.2,-3.18 -3.72,-3.18 a 7.76,7.76 0 0 0 -4.65,1.5 l -1.68,-3.27 a 12.41,12.41 0 0 1 7,-2 c 4.85,0.04 7.7,2.32 7.7,7.21 z m -4.68,4.11 v -1.65 h -3.21 c -2.19,0 -2.88,0.81 -2.88,1.89 0,1.08 1,1.95 2.64,1.95 a 3.45,3.45 0 0 0 3.45,-2.19 z"
     id="path196" />
  <path
     d="m 398.85,47.3 1.56,-3.36 A 11,11 0 0 0 406,45.5 c 2.16,0 3,-0.57 3,-1.47 0,-2.64 -9.75,0.06 -9.75,-6.39 0,-3.06 2.76,-5.22 7.47,-5.22 a 13.2,13.2 0 0 1 6.2,1.41 l -1.55,3.33 a 9.27,9.27 0 0 0 -4.65,-1.2 c -2.1,0 -3,0.66 -3,1.5 0,2.76 9.74,0.09 9.74,6.45 0,3 -2.78,5.13 -7.61,5.13 a 13.86,13.86 0 0 1 -7,-1.74 z"
     id="path198" />
  <path
     d="m 432,37.85 c 0,7.26 -4.35,11.31 -10.71,11.31 a 11.23,11.23 0 0 1 -5.82,-1.44 l 1.8,-3.57 a 6.79,6.79 0 0 0 3.93,1 c 3.48,0 5.76,-2.07 5.91,-6.12 a 7.18,7.18 0 0 1 -5.22,1.89 c -4.05,0 -7.23,-2.58 -7.23,-6.54 0,-4.29 3.51,-7 7.95,-7 5.79,0.06 9.39,3.69 9.39,10.47 z m -5.43,-3.66 c 0,-1.8 -1.35,-3.12 -3.66,-3.12 -2.07,0 -3.51,1.2 -3.51,3.12 0,1.92 1.41,3.15 3.57,3.15 2.16,0 3.57,-1.34 3.57,-3.15 z"
     id="path200" />
  <path
     d="m 595.5,213.75 c 0,4.31 -3.13,6.91 -8.27,6.91 h -5.44 v 6.39 h -2.14 v -20.24 h 7.58 c 5.14,0 8.27,2.6 8.27,6.94 z m -2.14,0 c 0,-3.24 -2.14,-5.09 -6.19,-5.09 h -5.38 v 10.12 h 5.38 c 4.05,0 6.19,-1.85 6.19,-5.03 z"
     id="path202" />
  <path
     d="m 611.8,221.64 h -11.27 l -2.43,5.41 h -2.23 l 9.25,-20.24 h 2.11 l 9.26,20.24 h -2.26 z m -0.78,-1.73 -4.86,-10.91 -4.85,10.87 z"
     id="path204" />
  <path
     d="m 640.86,206.81 v 20.24 h -2.05 v -16.19 l -7.95,13.62 h -1 l -8,-13.53 v 16.1 h -2 v -20.24 h 1.76 l 8.79,15 8.71,-15 z"
     id="path206" />
  <path
     class="cls-5"
     d="m 727.88,260.21 v 13.44 c 0,6 -3.24,8.76 -9.06,8.76 a 13.3,13.3 0 0 1 -7.92,-2.22 l 1.86,-3.36 a 9.65,9.65 0 0 0 5.7,1.83 c 3.3,0 4.74,-1.5 4.74,-4.41 v -0.69 a 6.64,6.64 0 0 1 -5.1,2 c -4.47,0 -8.07,-3.09 -8.07,-7.8 0,-4.71 3.6,-7.8 8.07,-7.8 a 6.48,6.48 0 0 1 5.34,2.31 v -2.07 z m -4.62,7.56 a 4.26,4.26 0 1 0 -4.23,4 3.92,3.92 0 0 0 4.23,-4 z"
     id="path208" />
  <path
     class="cls-5"
     d="m 745.94,276.35 -4.05,-5.85 h -4.47 v 5.85 h -4.86 v -21 h 9.09 c 5.61,0 9.12,2.91 9.12,7.62 a 6.83,6.83 0 0 1 -4.32,6.63 l 4.71,6.75 z m -4.56,-17 h -4 v 7.32 h 4 c 3,0 4.47,-1.38 4.47,-3.66 0,-2.28 -1.5,-3.7 -4.47,-3.7 z"
     id="path210" />
  <path
     class="cls-5"
     d="m 773.87,255.35 v 21 h -4 L 759.41,263.6 v 12.75 h -4.8 v -21 h 4 l 10.44,12.75 v -12.75 z"
     id="path212" />
  <path
     class="cls-5"
     d="m 792.68,271.85 h -9.75 l -1.86,4.5 h -5 l 9.36,-21 h 4.8 l 9.39,21 h -5.1 z m -1.53,-3.69 -3.33,-8 -3.33,8 z"
     id="path214" />
  <path
     class="cls-6"
     d="m 667.52,243 h -89.63 a 9.44,9.44 0 0 1 -9.08,-6.86 l -19.55,-69.08 a 8.19,8.19 0 0 0 -7.88,-5.95 H 323.62"
     id="path216" />
  <path
     class="cls-6"
     d="m 556.77,345.92 c -8.51,-4.7 -14,-13.24 -14,-22.28 0,-12 8.55,-25.14 28,-25.14 h 97.4"
     id="path218" />
  <path
     class="cls-6"
     d="m 667.92,298.5 a 27.74,27.74 0 0 0 0,-55.47"
     id="path220" />
  <text
     xml:space="preserve"
     style="font-size:102.667px;line-height:1.25;font-family:'Times New Roman';-inkscape-font-specification:'Times New Roman, Normal';font-variant-ligatures:none;letter-spacing:0px;word-spacing:0px;fill:#aa8800"
     x="-1.5679665"
     y="426.54199"
     id="text272"><tspan
       sodipodi:role="line"
       id="tspan270"
       x="-1.5679665"
       y="426.54199"
       style="font-style:normal;font-variant:normal;font-weight:bold;font-stretch:normal;font-size:102.667px;font-family:'Times New Roman';-inkscape-font-specification:'Times New Roman,  Bold';fill:#1266f1;fill-opacity:1">CRISPR All in One</tspan></text>
</svg>
