<?xml version="1.0" standalone="no"?><!DOCTYPE svg PUBLIC "-//W3C//DTD SVG 1.1//EN" "http://www.w3.org/Graphics/SVG/1.1/DTD/svg11.dtd"><svg t="1735548390472" class="icon" viewBox="0 0 1024 1024" version="1.1" xmlns="http://www.w3.org/2000/svg" p-id="5414" xmlns:xlink="http://www.w3.org/1999/xlink" width="200" height="200"><path d="M691.582463 484.25271c151.685187-88.991309 254.075188-253.275266 254.075188-441.55688C945.657651 19.098135 926.559516 0 902.96182 0s-42.69583 19.098135-42.69583 42.69583c0 36.196465-4.999512 71.093057-13.498682 104.689777H177.132702c-8.49917-33.596719-13.498682-68.493311-13.498682-104.689777 0-23.597696-19.098135-42.69583-42.69583-42.69583S78.242359 19.098135 78.242359 42.69583c0 56.394493 9.499072 110.5892 26.497413 161.38424 0.499951 1.399863 0.799922 2.699736 1.499853 3.99961 20.098037 58.594278 50.095108 112.589005 88.691339 159.484425 0.09999 0.09999 0.09999 0.09999 0.09999 0.199981 38.39625 46.59545 85.09169 85.891612 137.386583 116.588614C185.631872 527.948443 78.242359 664.035153 78.242359 824.819451v156.484719c0 23.597696 19.098135 42.69583 42.695831 42.69583s42.69583-19.098135 42.69583-42.69583V849.417049h696.83195v131.78713c0 23.597696 19.098135 42.69583 42.695831 42.695831s42.69583-19.098135 42.69583-42.695831V824.819451c-0.09999-160.784298-107.489503-296.871009-254.275168-340.566741z m-497.951372 217.178791c0.799922 0 1.599844 0.499951 2.399765 0.499951h625.738893c2.799727 0 5.299482-1.099893 7.999219-1.599844 10.398984 19.898057 18.298213 41.295967 23.497705 63.79377H170.733327c5.099502-22.097842 12.79875-43.095791 22.897764-62.693877zM512 461.754907c-67.593399-12.59877-129.387365-41.195977-181.782248-81.692023h363.564496c-52.394883 40.496045-114.188849 69.093253-181.782248 81.692023z m303.170394-229.077629c-10.898936 21.897862-23.697686 42.59584-38.09628 62.193926H246.825896c-14.398594-19.498096-27.097354-40.296065-38.09628-62.193926h606.440778z m-224.97803 321.968557c65.293624 0 125.287765 23.297725 171.983205 61.993946H261.724441c46.79543-38.696221 106.689581-61.993946 171.983205-61.993946 26.697393 0 52.694854-2.699736 78.192364-6.599355 25.69749 3.899619 51.694952 6.599356 78.292354 6.599355z" p-id="5415"></path></svg>